<svg xmlns="http://www.w3.org/2000/svg" viewBox="0 0 103 102"><path fill-rule="evenodd" clip-rule="evenodd" d="M16.2 11.6H86c2.8 0 5.1 2.3 5.1 5.1v69.8c0 2.8-2.3 5.1-5.1 5.1H16.2c-2.8 0-5.1-2.3-5.1-5.1V16.7c.1-2.8 2.3-5.1 5.1-5.1z"/><path fill-rule="evenodd" clip-rule="evenodd" fill="#33C0CD" d="M59.1 27c3.4 0 5.6 3 5.6 5.6 0 3.5-3 5.5-5.6 5.5h-4.7c-.1 0-.2.1-.2.2v3.6c0 6.2-5.2 10.5-9.7 10.4-5.8 0-10.1-3.5-9.2-8 .6-2.8 3.4-3.9 5.1-2.5 1.5 1.4.5 4.5-2.2 4.1-2.2-.5-1.9 1.8-.8 2.8 2.5 2.5 5.5 2.4 7.1 1.7 2.2-.8 2.2-2.6 2.2-6.7v-8.5c-.1-3.9 1-6.1 3.7-7.5H34.9c-1.7 0-4.7 1.1-5.3 4-.3 1.9 1 2.3 2.3 1.8 2.6-.6 3.9 2.3 2.5 3.9-1 1.2-3.3 1.3-4.7-1-2.7-4.3.2-9.6 5.3-9.6l24.1.2zm-5 1.4V37c0 .1-.1.3.2.3 2.6-.1 3.8-2.2 3.8-4.6 0-2.3-1-4.5-3.8-4.7-.2-.1-.2.1-.2.4zM67.8 47.5c.2-.1.1-.4-.2-.4-3.1-.4-5.2.6-5.3 2.8v5.9c0 .2.1.3.3.3h2.9c1.2 0 2-.7 2-2.6h.9v6h-.9c0-1.7-.8-2.6-2-2.6h-3c-.2 0-.3.1-.2.3v7.6c0 5.2-3.5 9.1-7.9 10.1-2.2.5-4.7.3-7.1-.9-4.7-2.5-5.2-8.1-1.8-9.6 1.4-.7 2.9-.2 3.5 1.3.6 1.8-.9 3.2-2.3 3.2h-1.1c-.8 0-1.4.7-.7 1.8 1.3 2 3.3 3.1 6 3.1 2.5-.1 3.9-2 3.9-4.6v-12c0-.1-.1-.3-.3-.3H41.6c-3.4 0-5.5 1.8-5.6 4.3-.1 1.7.7 2.5 1.8 1.8.4-.2.8-.4 1.3-.4 1.7 0 3.2 1.9 1.9 3.8-1.3 1.6-3.5 1.1-4.8-.7-3-4.2-.3-9.7 5.3-9.7h13c.1 0 .2-.1.2-.3.1-5.8 4.9-9.6 11.1-9.6 2.8 0 4.1.4 5 1.5 1.4 1.7.5 4.1-1.7 4.1-.8 0-1.7-.4-2.2-1.3-.5-.8-.2-2.2.9-2.9z"/></svg>