<svg xmlns="http://www.w3.org/2000/svg" viewBox="0 0 243.3 54"><path fill-rule="evenodd" clip-rule="evenodd" fill="#50C5D4" d="M42.9 13.8c4.3 0 7 3.8 7 7.1 0 4.3-3.7 6.9-7 6.9h-6c-.2 0-.3.1-.3.2l.1 4.6c0 7.8-6.6 13.2-12.3 13.1-7.3 0-12.7-4.4-11.6-10.1.8-3.6 4.3-4.9 6.4-3.1 1.9 1.8.6 5.7-2.7 5.1-2.7-.7-2.4 2.2-1 3.6 3.1 3.2 7 3 8.9 2.1 2.7-1 2.8-3.3 2.8-8.4V24.3c-.1-4.9 1.2-7.6 4.6-9.4H12.4c-2.1-.1-5.9 1.4-6.7 5-.3 2.4 1.3 2.9 2.9 2.3 3.3-.8 4.9 2.9 3.1 4.9-1.2 1.5-4.1 1.6-5.9-1.3-3.4-5.4.3-12 6.6-12h30.5zm-6.2 1.7v10.8c0 .1-.1.4.3.3 3.2-.1 4.8-2.8 4.8-5.7 0-2.8-1.3-5.7-4.7-5.9-.4-.1-.4.1-.4.5zM131.7 11c.2-.1.1-.5-.3-.5-3.8-.5-6.5.7-6.6 3.5v7.4c0 .2.1.4.4.4h3.6c1.5 0 2.6-.9 2.6-3.2h1.1v7.6h-1.1c0-2.2-1-3.2-2.5-3.2H125c-.2 0-.3.2-.3.3v9.6c0 6.5-4.4 11.5-10 12.7-2.8.6-5.9.4-8.9-1.2-5.9-3.1-6.6-10.2-2.2-12.1 1.8-.9 3.7-.2 4.4 1.6.7 2.3-1.1 4.1-2.9 4l-1.4-.1c-1 0-1.8.8-.9 2.3 1.7 2.5 4.2 3.9 7.5 3.9 3.2-.1 4.9-2.5 4.9-5.8v-15c0-.1-.1-.3-.3-.3H99.7c-4.2 0-6.9 2.3-7 5.4-.2 2.1.9 3.2 2.2 2.3.5-.3 1-.5 1.7-.5 2.1 0 4 2.4 2.4 4.8-1.6 2-4.4 1.4-6-.9-3.7-5.3-.3-12.2 6.7-12.2h15.4c.1 0 .3-.1.3-.3.1-7.3 6.2-12.1 14-12.1 3.5 0 5.1.6 6.3 1.9 1.7 2.1.6 5.2-2.1 5.2-1.1 0-2.2-.5-2.8-1.6-.8-1.3-.4-3.1.9-3.9zM151.3 30h8.5c1.2 0 2.1.7 2.1 1.5 1.1-1.1 2.6-1.5 4.4-1.6 2.5-.1 3.6 0 5.5.1 1.8 0 2.9 1.3 2.9 2.7v7.6c0 1.3.7 2.2 2.1 2.2v1.3h-7.6c-2 0-2.9-1.1-2.9-2.8v-7.5c0-2.2-2.7-2.7-4.4-.7v11h-8.4V33.3c0-1.7-.5-2.3-2.2-2.3v-1zM75.6 19.9h8.6c1.1 0 1.9.7 1.9 1.8v19.1c0 1.3 1.1 1.9 2.2 1.9V44h-8.6c-1.1 0-1.9-.9-1.9-1.7-1.1 1.5-3.6 1.7-5.2 1.7-4 0-7.6-2.8-7.5-7.6.1-4.5 4.5-6.3 7.9-6.3h4.7v-7.5c0-1.1-.6-1.6-2.2-1.6v-1.1h.1zm2.2 11.3v8.2c.1 2.1-1.9 3-3.3 1.6-2.3-2.3-1.8-9.4 3.3-9.8z"/><path fill-rule="evenodd" clip-rule="evenodd" fill="#50C5D4" d="M62.1 37.1c-.1 10.1-21.3 9.6-21.3 0-.1-9.8 21.4-10.3 21.3 0zm-10.7 5.7c1.7-1 2.5-3.6 2.5-5.7s-.7-4.9-2.5-5.9c-1.8 1-2.6 3.8-2.5 5.9 0 2.2.8 4.8 2.5 5.7zM137.4 41.2l7.7-3.1c3-1.2 4.4-2.4 3.7-4.4-1.4-3.2-8.1-4.8-13.5-3.7-3.9.8-7 3-7 7.1 0 8.5 14 8.4 19 5.1.5-.4.1-1.3-.8-.9-.8.5-2.2 1-3.7 1.4-3.3.8-5.1-.2-5.4-1.5zm-.6-1.3l2.2-.9c1.8-.6 2.6-2.3 2.3-3.6-.1-1.1-.8-2.7-1.5-3.5-.8-1-1.2-1-2.1.3-1.3 2.4-1.6 5.1-.9 7.7zM199.3 37.1c-.1 10.1-21.3 9.6-21.3 0-.1-9.9 21.4-10.3 21.3 0zm-10.6 5.7c1.7-1 2.5-3.6 2.5-5.7s-.7-4.9-2.5-5.9c-1.8 1-2.6 3.8-2.5 5.9-.1 2.1.8 4.7 2.5 5.7zM200.5 30h8.5c1.2 0 2.1.7 2.1 1.5 1.1-1.1 2.5-1.6 4.4-1.6h5.3c1.4 0 2.5.6 2.9 1.6 1.1-1.1 2.6-1.6 4.4-1.6h5.3c1.8 0 3.1 1.4 3.1 2.8v7.6c0 1.3.7 2.2 2.1 2.2v1.3H231c-2 0-2.9-1.1-2.9-2.8v-7.5c0-2.1-2.5-2.6-4.2-.9v11.1h-8.5V33.4c0-2.2-2.7-2.7-4.4-.7v11h-8.4V33.2c0-1.7-.5-2.3-2.2-2.3V30h.1z"/><path fill="#FFF" d="M154.7 24.2c0 .5.1.9.4 1.2.2.3.5.5.9.5.2 0 .4-.1.5-.2.1-.1.1-.3.1-.6v-2.8c0-.3 0-.5-.1-.6-.1-.1-.2-.2-.4-.2-.4 0-.7.2-1 .5-.2.3-.4.7-.4 1.2v1zm-2.2 1.9v-.4h.7v-7.1h-.7v-.4c.4 0 .7 0 1.1-.1.4 0 .8-.1 1.2-.1v4c.2-.3.4-.5.7-.7.3-.2.6-.2.9-.2.6 0 1.2.2 1.6.7.4.5.6 1.1.6 1.8s-.2 1.3-.6 1.8c-.4.5-1 .7-1.6.7-.3 0-.6-.1-.9-.2-.3-.1-.5-.4-.7-.7v.7h-2.3v.2zm6.5-.4h.7v-7.1h-.8v-.4c.4 0 .9 0 1.3-.1.4 0 .8-.1 1.2-.1v7.6h.8v.4H159v-.3zm3.7-2c0-.7.3-1.3.8-1.8s1.2-.7 2-.7 1.5.2 2 .7c.5.5.8 1.1.8 1.8s-.3 1.3-.8 1.8-1.2.7-2 .7-1.5-.2-2-.7c-.6-.5-.8-1-.8-1.8zm2.8-2.2c-.4 0-.6.1-.8.4-.1.2-.2.9-.2 1.8v.5c0 .7.1 1.2.2 1.4.1.2.4.3.8.3s.6-.1.7-.3c.1-.2.2-.8.2-1.7v-.7c0-.7-.1-1.2-.2-1.4-.1-.2-.3-.3-.7-.3zm5.8 4.7l-1.8-4.5h-.6v-.4h2.9v.4h-.6l.9 2.4 1.2-2.7h.3l1.2 2.7.7-2V22c0-.1 0-.1-.1-.2h-.7v-.4h1.8v.4h-.3c-.1 0-.2 0-.3.1-.1.1-.1.2-.2.3l-1.5 4.1h-.3l-1.4-2.9-1.2 2.9v-.1zm13.3-2v-.9c0-.5-.1-.9-.4-1.2-.2-.3-.6-.5-1-.5-.2 0-.4.1-.5.2-.1.1-.1.4-.1.7V25c0 .4 0 .6.1.7.1.1.2.2.5.2.4 0 .7-.2 1-.5.3-.3.4-.7.4-1.2zm0 1.9v-.7c-.2.3-.4.5-.7.7-.3.1-.6.2-.9.2-.6 0-1.2-.2-1.6-.7-.4-.5-.6-1.1-.6-1.8s.2-1.3.6-1.8c.4-.5.9-.7 1.6-.7.3 0 .6.1.9.2.3.2.5.4.7.7v-3.5h-.9v-.4c.5 0 1 0 1.4-.1.4 0 .8-.1 1.2-.1v7.6h.7v.4h-2.4zm2.8 0v-.4h.6v-4h-.7v-.4c.4 0 .8 0 1.1-.1.4 0 .8-.1 1.1-.1v1.3c.2-.4.4-.7.6-.9.3-.2.5-.3.8-.3.3 0 .5.1.7.3.2.2.3.4.3.7 0 .3-.1.5-.2.6-.2.2-.4.2-.6.2-.2 0-.4-.1-.5-.2-.2-.2-.2-.3-.2-.6 0-.1 0-.2.1-.3 0-.1.1-.2.1-.2h-.1c-.2 0-.4.2-.6.6-.2.4-.3.8-.3 1.2v2.1h.9v.4h-3.1v.1zm7.6 1.4c-.2.4-.4.7-.6.9-.2.2-.5.3-.7.3-.2 0-.4-.1-.6-.2-.1-.1-.2-.3-.2-.5s.1-.4.2-.5c.1-.1.3-.2.5-.2s.4.1.5.2c.1.1.2.2.3.2.1 0 .1 0 .2-.1 0 0 .1-.1.2-.3l.5-1.2-2.2-4.3h-.5v-.4h2.9v.4h-.6l1.2 2.5.9-2.1c0-.1 0-.1.1-.1V22c0-.1 0-.1-.1-.1s-.1-.1-.2-.1h-.5v-.4h1.9v.4h-.3c-.1 0-.2 0-.3.1-.1.1-.1.1-.2.3l-2.4 5.3zm7-1.8h.7v-7.1h-.8v-.4c.4 0 .9 0 1.3-.1.4 0 .8-.1 1.2-.1v7.6h.8v.4H202v-.3zm3.7-2c0-.7.3-1.3.8-1.8s1.2-.7 2-.7 1.5.2 2 .7c.5.5.8 1.1.8 1.8s-.3 1.3-.8 1.8-1.2.7-2 .7-1.5-.2-2-.7c-.6-.5-.8-1-.8-1.8zm2.8-2.2c-.4 0-.6.1-.8.4-.1.2-.2.9-.2 1.8v.5c0 .7.1 1.2.2 1.4.1.2.4.3.8.3s.6-.1.7-.3c.1-.2.2-.8.2-1.7v-.7c0-.7-.1-1.2-.2-1.4-.1-.2-.4-.3-.7-.3zm9.1-.3v4.5h.8v.4h-1.2c-.4 0-.8 0-1.3.1V25c-.2.4-.5.7-.8.9-.3.2-.7.3-1.1.3-.3 0-.5 0-.7-.1-.2-.1-.4-.2-.5-.3-.1-.1-.1-.2-.2-.3v-3.7h-.8v-.4h1.3c.4 0 .8 0 1.1-.1V25c0 .2 0 .4.1.5.1.1.2.2.4.2.3 0 .6-.2.8-.5.2-.4.4-.7.4-1.2v-2.2h-.9v-.4h1.2c.4-.1.9-.1 1.4-.2zm1 4.5h.7v-4h-.8v-.4h1.2c.4 0 .8 0 1.2-.1v1.2c.2-.4.5-.7.8-.9.3-.2.7-.3 1.1-.3.5 0 .9.1 1.1.3.2.2.3.7.3 1.4v2.8h.7v.4H222v-.4h.6v-3.3c0-.2 0-.4-.1-.5-.1-.1-.2-.1-.4-.1-.3 0-.6.2-.8.5-.2.3-.4.7-.4 1.2v2.3h.6v.4h-3v-.5h.1zm7.7.8c-.1.1-.2.2-.2.3 0 .1-.1.2-.1.4 0 .4.1.7.4.9.3.2.7.3 1.3.3.7 0 1.2-.1 1.6-.4.4-.3.6-.6.6-1 0-.2-.1-.3-.2-.4-.1-.1-.4-.1-.8-.1h-2.6zm.8-3.2c0 .3 0 .5.1.6.1.1.3.2.5.2s.4-.1.5-.2c.1-.1.1-.3.1-.6v-.9c0-.3 0-.5-.1-.6-.1-.1-.3-.2-.5-.2s-.4.1-.5.2c-.1.1-.1.3-.1.6v.9zm-1.2 3.1c-.2-.1-.4-.3-.5-.5-.1-.2-.2-.4-.2-.7 0-.3.1-.6.3-.8.2-.2.5-.4.8-.4-.2-.1-.4-.2-.6-.4-.1-.2-.2-.4-.2-.7 0-.5.2-.9.6-1.2.4-.3 1-.5 1.6-.5.4 0 .7 0 1 .1.3.1.5.2.8.4.1-.2.3-.4.4-.5.1-.1.3-.2.4-.2.2 0 .3.1.4.2.1.1.2.3.2.4 0 .1 0 .3-.1.4-.1.1-.2.1-.3.1-.1 0-.3 0-.4-.1-.1-.1-.2-.1-.2-.1h-.1l-.1.1c.1.1.2.3.2.4.1.1.1.3.1.4 0 .5-.2.9-.6 1.1-.4.3-1 .4-1.7.4h-1.2c-.3 0-.5 0-.6.1-.1.1-.2.2-.2.3 0 .1.1.2.2.3.1 0 .5.1 1 .1h2c.6 0 1 .1 1.2.3.2.2.4.5.4 1 0 .7-.3 1.3-.8 1.7-.5.4-1.2.6-2.2.6-.8 0-1.4-.1-1.8-.3-.4-.2-.6-.5-.6-1 0-.2.1-.4.2-.5.2-.2.3-.3.6-.5zm7.3-3.2h1.6v-.9c0-.3-.1-.4-.2-.6-.1-.1-.3-.2-.6-.2s-.5.1-.6.2c-.1.1-.2.3-.2.5v1zm3 1.3l.3.1c-.2.6-.5 1-.9 1.2-.4.3-.9.4-1.5.4-.8 0-1.5-.2-2-.7-.5-.4-.7-1-.7-1.8 0-.7.3-1.3.8-1.8s1.2-.7 2-.7c.7 0 1.3.2 1.7.6.4.4.6.9.6 1.6v.1h-3.2v1.2c0 .5.1.8.2.9.1.2.4.3.7.3.5 0 .9-.1 1.2-.4.4-.2.6-.5.8-1z"/></svg>